<svg class="diagram-root" style="background: #f5f6f6" xmlns="http://www.w3.org/2000/svg" xmlns:xlink="http://www.w3.org/1999/xlink"><style>.diagram-root { font-family: "Helvetica Neue", sans-serif; font-size: 12px; } .t { overflow: visible; } .t-bg { y: 40; fill: #fff;   } .th { fill: #005aa0;   } .tht { fill: #fff; font-size: 14px;  } .tf { fill: #323c46; overflow: visible; } .tf.pk { fill: #005aa0; font-weight: bold; } .tf.fk { font-weight: bold; } .ty { fill: #adb1b5; font-weight: normal; text-anchor: end; } .r { fill: transparent; stroke: #c3c3c3; stroke-width: 1; } .l { stroke: 1; } .i { fill: #c2c7ce; stroke: #c2c7ce; } .i.ix { fill: #afb3b6; stroke: #000; } .fa { fill: transparent; overflow: visible; } .fa .bg.hover { fill: #f7f7f7; } .c { cy: 12; r: 4; stroke: #d2d2dc; fill: #d2d2dc; } .hr { fill: transparent; stroke: #323c46; stroke-opacity: 0.035; stroke-width: 13; } .dc { stroke: #fa5a3c; fill: #fa5a3c; } .x { stroke: white; stroke-width: 1; } .hl .th { fill: #1b9bff; } .hl .tht {  } .fhl .bg { fill: #e7f4ff; } .fhls .bg {  } .r.hl { stroke: #1b9bff; } .dim { opacity: 0.25; }</style><g class="drawing-wrapper" transform="translate(25.75, 128.75) scale(1,1)"><g class="rs"><path d="M 161.57 215.75 m -1, 0 a 1,1 0 1,0 2,0 a 1,1 0 1,0 -2,0 M 161.57 215.75 m -0.5, 0 a 0.5,0.5 0 1,0 1,0 a 0.5,0.5 0 1,0 -1,0  M161.57 215.75 L161.57 215.75 173.57 215.75 M 161.57 221.75 m -1, 0 a 1,1 0 1,0 2,0 a 1,1 0 1,0 -2,0 M 161.57 221.75 m -0.5, 0 a 0.5,0.5 0 1,0 1,0 a 0.5,0.5 0 1,0 -1,0  M161.57 221.75 L161.57 221.75 168.57 215.75 161.57 209.75 M 161.57 209.75 m -1, 0 a 1,1 0 1,0 2,0 a 1,1 0 1,0 -2,0 M 161.57 209.75 m -0.5, 0 a 0.5,0.5 0 1,0 1,0 a 0.5,0.5 0 1,0 -1,0  M173.57 215.75 C 226.514 215.75, 225.41 -41.75, 175.41 -41.75 M 163.41 -41.75 m -1, 0 a 1,1 0 1,0 2,0 a 1,1 0 1,0 -2,0 M 163.41 -41.75 m -0.5, 0 a 0.5,0.5 0 1,0 1,0 a 0.5,0.5 0 1,0 -1,0  M163.41 -41.75 L163.41 -41.75 175.41 -41.75 M169.41 -35.75 L169.41 -35.75 169.41 -47.75" id="h518110237" class="r"></path><path d="M 552.5 -26.75 m -1, 0 a 1,1 0 1,0 2,0 a 1,1 0 1,0 -2,0 M 552.5 -26.75 m -0.5, 0 a 0.5,0.5 0 1,0 1,0 a 0.5,0.5 0 1,0 -1,0  M552.5 -26.75 L552.5 -26.75 540.5 -26.75 M 552.5 -20.75 m -1, 0 a 1,1 0 1,0 2,0 a 1,1 0 1,0 -2,0 M 552.5 -20.75 m -0.5, 0 a 0.5,0.5 0 1,0 1,0 a 0.5,0.5 0 1,0 -1,0  M552.5 -20.75 L552.5 -20.75 545.5 -26.75 552.5 -32.75 M 552.5 -32.75 m -1, 0 a 1,1 0 1,0 2,0 a 1,1 0 1,0 -2,0 M 552.5 -32.75 m -0.5, 0 a 0.5,0.5 0 1,0 1,0 a 0.5,0.5 0 1,0 -1,0  M540.5 -26.75 Q 449.23 -26.75, 357.96 -34.25 T 175.41 -41.75 M 163.41 -41.75 m -1, 0 a 1,1 0 1,0 2,0 a 1,1 0 1,0 -2,0 M 163.41 -41.75 m -0.5, 0 a 0.5,0.5 0 1,0 1,0 a 0.5,0.5 0 1,0 -1,0  M163.41 -41.75 L163.41 -41.75 175.41 -41.75 M169.41 -35.75 L169.41 -35.75 169.41 -47.75" id="h219041670" class="r"></path><path d="M 721.69 -1.75 m -1, 0 a 1,1 0 1,0 2,0 a 1,1 0 1,0 -2,0 M 721.69 -1.75 m -0.5, 0 a 0.5,0.5 0 1,0 1,0 a 0.5,0.5 0 1,0 -1,0  M721.69 -1.75 L721.69 -1.75 733.69 -1.75 M 721.69 4.25 m -1, 0 a 1,1 0 1,0 2,0 a 1,1 0 1,0 -2,0 M 721.69 4.25 m -0.5, 0 a 0.5,0.5 0 1,0 1,0 a 0.5,0.5 0 1,0 -1,0  M721.69 4.25 L721.69 4.25 728.69 -1.75 721.69 -7.75 M 721.69 -7.75 m -1, 0 a 1,1 0 1,0 2,0 a 1,1 0 1,0 -2,0 M 721.69 -7.75 m -0.5, 0 a 0.5,0.5 0 1,0 1,0 a 0.5,0.5 0 1,0 -1,0  M733.69 -1.75 C 794.4579999999999 -1.75, 790.42 274.5, 740.42 274.5 M 728.42 274.5 m -1, 0 a 1,1 0 1,0 2,0 a 1,1 0 1,0 -2,0 M 728.42 274.5 m -0.5, 0 a 0.5,0.5 0 1,0 1,0 a 0.5,0.5 0 1,0 -1,0  M728.42 274.5 L728.42 274.5 740.42 274.5 M734.42 280.5 L734.42 280.5 734.42 268.5" id="h2784726141" class="r"></path><path d="M 381.57 280.75 m -1, 0 a 1,1 0 1,0 2,0 a 1,1 0 1,0 -2,0 M 381.57 280.75 m -0.5, 0 a 0.5,0.5 0 1,0 1,0 a 0.5,0.5 0 1,0 -1,0  M381.57 280.75 L381.57 280.75 393.57 280.75 M 381.57 286.75 m -1, 0 a 1,1 0 1,0 2,0 a 1,1 0 1,0 -2,0 M 381.57 286.75 m -0.5, 0 a 0.5,0.5 0 1,0 1,0 a 0.5,0.5 0 1,0 -1,0  M381.57 286.75 L381.57 286.75 388.57 280.75 381.57 274.75 M 381.57 274.75 m -1, 0 a 1,1 0 1,0 2,0 a 1,1 0 1,0 -2,0 M 381.57 274.75 m -0.5, 0 a 0.5,0.5 0 1,0 1,0 a 0.5,0.5 0 1,0 -1,0  M393.57 280.75 C 443.57 280.75, 574.466 -41.75, 175.41 -41.75 M 163.41 -41.75 m -1, 0 a 1,1 0 1,0 2,0 a 1,1 0 1,0 -2,0 M 163.41 -41.75 m -0.5, 0 a 0.5,0.5 0 1,0 1,0 a 0.5,0.5 0 1,0 -1,0  M163.41 -41.75 L163.41 -41.75 175.41 -41.75 M169.41 -35.75 L169.41 -35.75 169.41 -47.75" id="h221257298" class="r"></path><path d="M 873.75 128.25 m -1, 0 a 1,1 0 1,0 2,0 a 1,1 0 1,0 -2,0 M 873.75 128.25 m -0.5, 0 a 0.5,0.5 0 1,0 1,0 a 0.5,0.5 0 1,0 -1,0  M873.75 128.25 L873.75 128.25 861.75 128.25 M 873.75 134.25 m -1, 0 a 1,1 0 1,0 2,0 a 1,1 0 1,0 -2,0 M 873.75 134.25 m -0.5, 0 a 0.5,0.5 0 1,0 1,0 a 0.5,0.5 0 1,0 -1,0  M873.75 134.25 L873.75 134.25 866.75 128.25 873.75 122.25 M 873.75 122.25 m -1, 0 a 1,1 0 1,0 2,0 a 1,1 0 1,0 -2,0 M 873.75 122.25 m -0.5, 0 a 0.5,0.5 0 1,0 1,0 a 0.5,0.5 0 1,0 -1,0  M861.75 128.25 Q 831.42 128.25, 801.09 201.38 T 740.42 274.5 M 728.42 274.5 m -1, 0 a 1,1 0 1,0 2,0 a 1,1 0 1,0 -2,0 M 728.42 274.5 m -0.5, 0 a 0.5,0.5 0 1,0 1,0 a 0.5,0.5 0 1,0 -1,0  M728.42 274.5 L728.42 274.5 740.42 274.5 M734.42 280.5 L734.42 280.5 734.42 268.5" id="h3102077576" class="r"></path><path d="M 873.75 153.25 m -1, 0 a 1,1 0 1,0 2,0 a 1,1 0 1,0 -2,0 M 873.75 153.25 m -0.5, 0 a 0.5,0.5 0 1,0 1,0 a 0.5,0.5 0 1,0 -1,0  M873.75 153.25 L873.75 153.25 861.75 153.25 M 873.75 159.25 m -1, 0 a 1,1 0 1,0 2,0 a 1,1 0 1,0 -2,0 M 873.75 159.25 m -0.5, 0 a 0.5,0.5 0 1,0 1,0 a 0.5,0.5 0 1,0 -1,0  M873.75 159.25 L873.75 159.25 866.75 153.25 873.75 147.25 M 873.75 147.25 m -1, 0 a 1,1 0 1,0 2,0 a 1,1 0 1,0 -2,0 M 873.75 147.25 m -0.5, 0 a 0.5,0.5 0 1,0 1,0 a 0.5,0.5 0 1,0 -1,0  M861.75 153.25 Q 690.17 153.25, 518.58 55.75 T 175.41 -41.75 M 163.41 -41.75 m -1, 0 a 1,1 0 1,0 2,0 a 1,1 0 1,0 -2,0 M 163.41 -41.75 m -0.5, 0 a 0.5,0.5 0 1,0 1,0 a 0.5,0.5 0 1,0 -1,0  M163.41 -41.75 L163.41 -41.75 175.41 -41.75 M169.41 -35.75 L169.41 -35.75 169.41 -47.75" id="h175481269" class="r"></path></g><g class="hrs"></g><g class="ts"><svg width="167.16" height="200" x="-3.75" y="-98.75" id="h3299212598" class="t"><rect height="40" width="167.16" class="th"></rect><text x="13" y="25" class="tht">Employees</text><rect height="160" width="167.16" class="t-bg"></rect><text x="13" y="61" class="tf pk">emp_no<tspan x="154.16" class="ty">VARCHAR</tspan></text><path d="M7,14A2,2 0 0,1 5,12A2,2 0 0,1 7,10A2,2 0 0,1 9,12A2,2 0 0,1 7,14M12.65,10C11.83,7.67 9.61,6 7, 6A6, 6 0 0, 0 1, 12A6, 6 0 0, 0 7, 18C9.61, 18 11.83, 16.33 12.65, 14H17V18H21V14H23V10H12.65Z" class="i pk" transform="translate(76.368984375, 48) scale(0.65)"></path><text x="13" y="86" class="tf">birth_date<tspan x="154.16" class="ty">VARCHAR</tspan></text><text x="13" y="111" class="tf">first_name<tspan x="154.16" class="ty">VARCHAR</tspan></text><text x="13" y="136" class="tf">last_name<tspan x="154.16" class="ty">VARCHAR</tspan></text><text x="13" y="161" class="tf">gender<tspan x="154.16" class="ty">VARCHAR</tspan></text><text x="13" y="186" class="tf">hire_date<tspan x="154.16" class="ty">VARCHAR</tspan></text></svg><svg width="157.82" height="150" x="3.75" y="158.75" id="h1984824179" class="t"><rect height="40" width="157.82" class="th"></rect><text x="13" y="25" class="tht">Title</text><rect height="110" width="157.82" class="t-bg"></rect><text x="13" y="61" class="tf fk">emp_no<tspan x="144.82" class="ty">VARCHAR</tspan></text><text x="13" y="86" class="tf">title<tspan x="144.82" class="ty">VARCHAR</tspan></text><text x="13" y="111" class="tf">from_date<tspan x="144.82" class="ty">VARCHAR</tspan></text><text x="13" y="136" class="tf">to_date<tspan x="144.82" class="ty">VARCHAR</tspan></text></svg><svg width="169.19" height="150" x="552.5" y="-83.75" id="h518886252" class="t"><rect height="40" width="169.19" class="th"></rect><text x="13" y="25" class="tht">Department_Employee</text><rect height="110" width="169.19" class="t-bg"></rect><text x="13" y="61" class="tf fk">emp_no<tspan x="156.19" class="ty">VARCHAR</tspan></text><text x="13" y="86" class="tf fk">dept_no<tspan x="156.19" class="ty">VARCHAR</tspan></text><text x="13" y="111" class="tf">from_date<tspan x="156.19" class="ty">VARCHAR</tspan></text><text x="13" y="136" class="tf">to_date<tspan x="156.19" class="ty">VARCHAR</tspan></text></svg><svg width="167.17" height="100" x="561.25" y="217.5" id="h3708248841" class="t"><rect height="40" width="167.17" class="th"></rect><text x="13" y="25" class="tht">Departments</text><rect height="60" width="167.17" class="t-bg"></rect><text x="13" y="61" class="tf pk">dept_no<tspan x="154.17" class="ty">VARCHAR</tspan></text><path d="M7,14A2,2 0 0,1 5,12A2,2 0 0,1 7,10A2,2 0 0,1 9,12A2,2 0 0,1 7,14M12.65,10C11.83,7.67 9.61,6 7, 6A6, 6 0 0, 0 1, 12A6, 6 0 0, 0 7, 18C9.61, 18 11.83, 16.33 12.65, 14H17V18H21V14H23V10H12.65Z" class="i pk" transform="translate(76.37898437499999, 48) scale(0.65)"></path><text x="13" y="86" class="tf">dept_name<tspan x="154.17" class="ty">VARCHAR</tspan></text></svg><svg width="157.82" height="150" x="223.75" y="223.75" id="h3858243705" class="t"><rect height="40" width="157.82" class="th"></rect><text x="13" y="25" class="tht">Salaries</text><rect height="110" width="157.82" class="t-bg"></rect><text x="13" y="61" class="tf fk">emp_no<tspan x="144.82" class="ty">VARCHAR</tspan></text><text x="13" y="86" class="tf">salary<tspan x="144.82" class="ty">VARCHAR</tspan></text><text x="13" y="111" class="tf">from_date<tspan x="144.82" class="ty">VARCHAR</tspan></text><text x="13" y="136" class="tf">to_date<tspan x="144.82" class="ty">VARCHAR</tspan></text></svg><svg width="162.19" height="150" x="873.75" y="71.25" id="h2951077092" class="t"><rect height="40" width="162.19" class="th"></rect><text x="13" y="25" class="tht">Department_Manager</text><rect height="110" width="162.19" class="t-bg"></rect><text x="13" y="61" class="tf fk">dept_no<tspan x="149.19" class="ty">VARCHAR</tspan></text><text x="13" y="86" class="tf fk">emp_no<tspan x="149.19" class="ty">VARCHAR</tspan></text><text x="13" y="111" class="tf">from_date<tspan x="149.19" class="ty">VARCHAR</tspan></text><text x="13" y="136" class="tf">to_date<tspan x="149.19" class="ty">VARCHAR</tspan></text></svg></g></g><text class="qdbd-link" x="10" y="20">www.quickdatabasediagrams.com</text></svg>